<svg version="1.1" xmlns="http://www.w3.org/2000/svg" viewBox="0 0 673.4922265476389 542.2052829150231" width="673.4922265476389" height="542.2052829150231">
  <!-- svg-source:excalidraw -->
  
  <defs>
    <style class="style-fonts">
      @font-face {
        font-family: "Virgil";
        src: url("https://excalidraw.com/Virgil.woff2");
      }
      @font-face {
        font-family: "Cascadia";
        src: url("https://excalidraw.com/Cascadia.woff2");
      }
    </style>
  </defs>
  <g stroke-linecap="round" transform="translate(10 108.62325166502308) rotate(0 162.26171875 162.26171875)"><path d="M203.75 40.75 M203.75 40.75 C220.89 59.45, 238.36 77.39, 283.77 122.25 M203.75 40.75 C226.72 63.49, 249.19 87.5, 283.77 122.25 M283.77 122.25 C325.23 163.73, 325.76 161.2, 283.77 203.75 M283.77 122.25 C325.62 164.6, 324.32 161.73, 283.77 203.75 M283.77 203.75 C255.16 228.49, 230.93 257.23, 203.75 283.77 M283.77 203.75 C259.99 225.06, 238.77 248.34, 203.75 283.77 M203.75 283.77 C161.46 325.08, 162.31 324.54, 122.25 283.77 M203.75 283.77 C165.22 322.5, 165.01 326.23, 122.25 283.77 M122.25 283.77 C89.71 251.48, 58.68 222.79, 40.75 203.75 M122.25 283.77 C102.18 265.28, 83.01 245.22, 40.75 203.75 M40.75 203.75 C1.74 164.74, 1.76 162.15, 40.75 122.25 M40.75 203.75 C-1.42 161.55, -1.66 162.54, 40.75 122.25 M40.75 122.25 C60.05 99.83, 82.53 79.71, 122.25 40.75 M40.75 122.25 C59.37 103.11, 78.8 86.28, 122.25 40.75 M122.25 40.75 C163.39 -0.54, 162.78 1.07, 203.75 40.75 M122.25 40.75 C162.64 1.21, 161.98 -1.76, 203.75 40.75" stroke="#1e1e1e" stroke-width="1" fill="none"/></g><g stroke-linecap="round" transform="translate(147.95703125 72.38887666502308) rotate(0 162.26171875 162.26171875)"><path d="M203.75 40.75 M203.75 40.75 C233.52 71.24, 258.42 100.56, 283.77 122.25 M203.75 40.75 C229.58 66.32, 254.92 92.04, 283.77 122.25 M283.77 122.25 C322.84 161.99, 326.46 161.85, 283.77 203.75 M283.77 122.25 C325.5 161.96, 326.06 162.18, 283.77 203.75 M283.77 203.75 C262.43 226.35, 238.64 249.34, 203.75 283.77 M283.77 203.75 C265.56 221.68, 246.9 239.97, 203.75 283.77 M203.75 283.77 C161.27 324.63, 164.35 323.36, 122.25 283.77 M203.75 283.77 C163.37 322.86, 164.04 325.87, 122.25 283.77 M122.25 283.77 C98.71 257.83, 71.98 232.66, 40.75 203.75 M122.25 283.77 C94.61 256.24, 66.9 228.95, 40.75 203.75 M40.75 203.75 C0.82 163.99, -1.15 164.92, 40.75 122.25 M40.75 203.75 C-1.15 163.85, 1.82 163.67, 40.75 122.25 M40.75 122.25 C64.61 101.44, 86.48 76.65, 122.25 40.75 M40.75 122.25 C68.64 94.46, 97 66.17, 122.25 40.75 M122.25 40.75 C161.68 0.46, 164.17 0.2, 203.75 40.75 M122.25 40.75 C163.05 -1.57, 164.54 -1.15, 203.75 40.75" stroke="#1e1e1e" stroke-width="1" fill="none"/></g><g stroke-linecap="round" transform="translate(107.66796875 207.68184541502308) rotate(0 162.26171875 162.26171875)"><path d="M203.75 40.75 M203.75 40.75 C227.27 64.08, 249.04 85.83, 283.77 122.25 M203.75 40.75 C233.68 70.89, 261.83 99.4, 283.77 122.25 M283.77 122.25 C325.51 162.55, 322.99 164.49, 283.77 203.75 M283.77 122.25 C325.92 163.31, 325.96 161.29, 283.77 203.75 M283.77 203.75 C261.65 223.26, 242.19 243.75, 203.75 283.77 M283.77 203.75 C252.98 235.63, 222.15 266.81, 203.75 283.77 M203.75 283.77 C163.49 325.54, 164.75 323.91, 122.25 283.77 M203.75 283.77 C162.85 326.8, 164.85 326.66, 122.25 283.77 M122.25 283.77 C100.79 262.39, 81.62 244.41, 40.75 203.75 M122.25 283.77 C100.65 262.47, 79.22 241.78, 40.75 203.75 M40.75 203.75 C0.04 162.78, 1.92 164.66, 40.75 122.25 M40.75 203.75 C0.77 165.05, 0.74 161.62, 40.75 122.25 M40.75 122.25 C63.72 96.56, 89.2 70.93, 122.25 40.75 M40.75 122.25 C66.09 97.06, 92.94 69.94, 122.25 40.75 M122.25 40.75 C164.81 -0.93, 162.78 0.58, 203.75 40.75 M122.25 40.75 C161.46 -0.72, 162.18 -1.36, 203.75 40.75" stroke="#1e1e1e" stroke-width="1" fill="none"/></g><g stroke-linecap="round" transform="translate(338.9687890476389 10) rotate(0 162.26171875 162.26171875)"><path d="M203.75 40.75 M203.75 40.75 C225.65 61.56, 250.72 87.75, 283.77 122.25 M203.75 40.75 C234.62 71.57, 263.91 102.68, 283.77 122.25 M283.77 122.25 C323.5 161.05, 326.39 163.51, 283.77 203.75 M283.77 122.25 C325.14 164.96, 324.73 161.41, 283.77 203.75 M283.77 203.75 C255.8 229.75, 230.07 259.23, 203.75 283.77 M283.77 203.75 C263.43 222.12, 244.13 242.61, 203.75 283.77 M203.75 283.77 C161.95 326.06, 163.05 324.75, 122.25 283.77 M203.75 283.77 C163.85 326.8, 164.84 324.07, 122.25 283.77 M122.25 283.77 C104.91 268.14, 85.66 249.76, 40.75 203.75 M122.25 283.77 C93.39 255.28, 63.73 226.48, 40.75 203.75 M40.75 203.75 C1.43 162.53, -1.52 162.68, 40.75 122.25 M40.75 203.75 C-2.04 164.13, -0.59 162.11, 40.75 122.25 M40.75 122.25 C67.25 95.57, 97.05 67.29, 122.25 40.75 M40.75 122.25 C70.04 94.52, 97.94 66.62, 122.25 40.75 M122.25 40.75 C163.7 -1.19, 164.71 1.05, 203.75 40.75 M122.25 40.75 C162.36 -1.49, 165.09 1.89, 203.75 40.75" stroke="#1e1e1e" stroke-width="1" fill="none"/></g></svg>