<svg version="1.1" xmlns="http://www.w3.org/2000/svg" viewBox="0 0 455.433827870958 442.4056643676669" width="455.433827870958" height="442.4056643676669" filter="invert(93%) hue-rotate(180deg)">
  <!-- svg-source:excalidraw -->
  
  <defs>
    <style class="style-fonts">
      @font-face {
        font-family: "Virgil";
        src: url("https://excalidraw.com/Virgil.woff2");
      }
      @font-face {
        font-family: "Cascadia";
        src: url("https://excalidraw.com/Cascadia.woff2");
      }
    </style>
  </defs>
  <g stroke-linecap="round" transform="translate(10 29.703779513490247) rotate(0 76.978515625 76.978515625)"><path d="M18.48 25.34 C18.48 25.34, 18.48 25.34, 18.48 25.34 M18.48 25.34 C18.48 25.34, 18.48 25.34, 18.48 25.34 M13.56 39.09 C19.77 29.78, 26.78 23.23, 30.77 17.63 M12.26 39.27 C18.4 31.57, 26.02 23.32, 31.73 15.55 M5.41 54.87 C16.06 39.11, 29.96 25.08, 47.19 6.33 M4.68 54 C18.35 38.7, 29.61 24.43, 45.46 7.33 M6.14 56.28 C16.67 46.75, 25.68 38.36, 47.33 8.57 M5.88 57.66 C21.11 41.96, 34.74 23.64, 48.44 8.7 M6.04 65.28 C22.99 43.39, 41.95 21.72, 52.89 8.69 M4.71 64.51 C17.61 49.7, 31.32 37.41, 55.11 8.21 M6.2 70.42 C19.82 55.96, 34.41 36.64, 59.29 6.55 M5.16 72.13 C21.25 53.33, 37.05 34.44, 61.25 7.45 M2.51 76.66 C29.54 52.7, 49.81 25.12, 65.91 5.18 M3.69 78 C24.62 53.56, 46.1 29.89, 67.5 5.39 M3.58 83.92 C22.54 62.85, 46.41 37.64, 71.97 7.03 M4.36 84.81 C26.22 60.35, 47.85 36.51, 72.47 5.42 M3.83 93.26 C35.9 55.8, 64.29 22.79, 80.96 0.94 M3.15 93.37 C24.17 69.06, 44.53 44.33, 80.41 1.09 M3.96 98.4 C27.43 66.54, 51.98 39.14, 87.35 1.5 M3.72 96.91 C35.08 62.51, 63.32 29.3, 85.19 2.15 M4.24 101.52 C32.65 70.61, 57.6 39.45, 89.43 5.15 M5.93 101.6 C29.25 72.84, 54.12 44.55, 90.39 3.46 M9.58 102.95 C43.97 65.73, 78.08 27.2, 95.4 6.25 M8.16 105.02 C32.12 75.17, 56.8 48.72, 94.62 5.81 M8.71 106.72 C37.32 76.4, 67.71 41.13, 99.76 8.12 M9.75 108.4 C28.56 87.25, 46.8 66.01, 99.2 5.68 M10.7 111.49 C34.92 88.08, 57.74 61.36, 103.87 6.49 M12.74 112.38 C41.83 78.34, 73.07 41.55, 103.9 7.43 M14.74 117.11 C43.52 82.78, 76.67 43.86, 108.39 8.99 M12.97 116.29 C47.58 77.09, 80.8 37.47, 106.71 7.6 M15.41 119.37 C39.19 94.06, 61.56 67.32, 109.83 10.71 M14.5 119.59 C40.5 89.25, 66.06 59.74, 111.57 9.15 M15.72 124.69 C57.03 78.61, 97.89 33.97, 117.01 9.62 M17.98 123.43 C49.15 86.97, 82.45 48.81, 116.16 11.69 M21.72 127.96 C49.58 92.1, 78.66 56.03, 118.28 11.67 M20.49 127.11 C50.47 90.63, 80.88 55.43, 118.27 13.26 M21.6 128.95 C59.2 93.63, 89.53 53.54, 121.28 18.42 M23.86 129.35 C56.95 92.25, 90.27 52.47, 120.9 16.82 M27.57 130.88 C55 96.35, 86.63 60.93, 124.13 20.12 M25.84 133.53 C55.4 96.66, 86.85 60.01, 124.65 19.94 M30.31 133.63 C55.92 103.04, 82.38 68.65, 129.32 22.21 M29.77 135.71 C58.39 100.54, 89.86 64.02, 126.87 22.17 M30.84 138.01 C60.1 104.82, 85.68 74.22, 130.83 25.79 M31.73 137.59 C52.7 110.79, 76.14 85.96, 130.01 24.2 M37.01 141.24 C65.3 104.15, 95.77 72.26, 133.94 27.89 M34.24 140.8 C73.37 95.68, 111.51 51.47, 132.77 26.86 M39.98 144.47 C69.2 105.48, 99.72 68.23, 135.12 29.69 M38.04 143.13 C61.82 116.99, 85.33 90.29, 135.11 30.19 M42.75 144.27 C61.86 122.8, 83.48 95.75, 137.15 33.07 M41.83 144.77 C63.48 119.85, 86.13 92.18, 138.71 32.61 M45.97 146.62 C79.63 107.89, 111.74 70.68, 140.33 38.06 M45.33 147.1 C65.76 123.84, 85.42 102.64, 141.39 37.22 M48.49 146.95 C82.56 106.31, 117.04 68.96, 141.59 42.88 M49.09 147.4 C77.95 115.82, 105.99 83.84, 141.49 40.52 M55.78 149.09 C85.28 108.8, 119.25 72.46, 143.02 43.9 M54.21 148.62 C78.36 121.81, 99.88 95.14, 143.64 45.17 M59.16 150.3 C80.67 126.63, 100.62 102.02, 147.07 48.68 M58.73 151.11 C91.5 113.21, 124.66 75.73, 147.23 49.79 M64.27 152.75 C90.36 118.93, 117.12 88.09, 149 54.94 M63.39 150.89 C94.23 113.06, 127.13 77.48, 148.06 52.6 M67.58 151.06 C92.17 124.05, 114.91 98.65, 150.73 57.09 M67.41 151.92 C86.51 129.72, 107.03 106.34, 149.5 56.77 M72.88 151.73 C98.97 123.85, 123.84 93.48, 150.01 60.95 M72.22 154.29 C86.42 134.7, 103.11 115.25, 150.87 61.89 M75.81 152.72 C92.57 135.73, 112.87 111.63, 153.57 66.49 M75.2 154.51 C107.59 118.93, 138.31 81.56, 153.86 65.44 M81.63 153.39 C98.79 138.71, 111.14 119.81, 153.03 72.66 M80.77 154.25 C100.06 133.16, 118.97 111.57, 153.68 70.35 M86.46 153.77 C112.03 125.55, 138.78 93.69, 151.93 76.77 M86.82 152.37 C113.66 124.92, 138.8 95.23, 153.33 77.17 M95.76 151.83 C114.44 128.06, 131.58 105.76, 155 82.83 M94.47 152.88 C112.17 129.9, 131.4 108.31, 154.16 83.14 M101.46 150.21 C111.9 136.7, 123.38 126.1, 155.29 89.52 M100.45 150.44 C120.85 127.92, 141.11 103.31, 154.2 88.9 M107.15 146.95 C124.04 130.5, 142.51 108.13, 150.71 98.21 M107.51 147.89 C125.65 129.07, 142.81 108.85, 151.98 97.28 M123.17 135.98 C126.86 133.51, 131.63 128.06, 141.9 115.45 M122.81 137.44 C129.08 130.96, 135.4 123.38, 143.65 114.55" stroke="#b2f2bb" stroke-width="0.5" fill="none"/><path d="M46.04 5.93 C55.28 0.86, 68.57 0.32, 79.94 0.89 C91.3 1.46, 104.48 4.07, 114.24 9.37 C124 14.67, 132.2 23.78, 138.48 32.69 C144.76 41.6, 149.78 52.19, 151.91 62.85 C154.04 73.51, 154.24 85.76, 151.26 96.65 C148.28 107.54, 141.38 119.73, 134.03 128.21 C126.69 136.69, 117.31 143.41, 107.17 147.53 C97.03 151.65, 84.41 153.33, 73.18 152.93 C61.95 152.53, 49.43 150.16, 39.8 145.11 C30.16 140.05, 21.95 131.67, 15.4 122.6 C8.84 113.53, 2.48 101.83, 0.47 90.7 C-1.54 79.56, 0.35 66.68, 3.35 55.79 C6.34 44.91, 8.71 34.46, 18.43 25.41 C28.15 16.35, 51.94 5.57, 61.69 1.49 C71.43 -2.59, 76.77 -0.27, 76.88 0.92 M88.89 0.75 C99.35 1.32, 111.46 7.45, 120.9 14.12 C130.35 20.79, 140.21 31.07, 145.57 40.77 C150.92 50.47, 152.66 61.49, 153.04 72.33 C153.42 83.16, 152.16 95.52, 147.86 105.79 C143.56 116.06, 135.6 126.44, 127.23 133.93 C118.86 141.43, 108.18 147.46, 97.63 150.76 C87.09 154.06, 74.7 155.61, 63.94 153.73 C53.18 151.86, 42.3 146.11, 33.08 139.51 C23.85 132.92, 14.06 123.79, 8.59 114.17 C3.13 104.55, 0.52 92.89, 0.28 81.8 C0.03 70.71, 3.03 57.78, 7.13 47.61 C11.24 37.44, 16.57 28.35, 24.92 20.79 C33.27 13.23, 46.19 5.77, 57.24 2.27 C68.28 -1.24, 85.79 -0.1, 91.18 -0.22 C96.56 -0.34, 89.96 0.22, 89.56 1.57" stroke="#1e1e1e" stroke-width="1" fill="none"/></g><g stroke-linecap="round" transform="translate(291.476796620958 10.000000000000028) rotate(0 76.978515625 76.978515625)"><path d="M27.46 17.25 C27.46 17.25, 27.46 17.25, 27.46 17.25 M27.46 17.25 C27.46 17.25, 27.46 17.25, 27.46 17.25 M8.11 45.41 C18.19 34.15, 30.57 19.82, 37.69 13.4 M7.41 46.15 C17.26 35.3, 28.21 24.04, 37.1 12.68 M7.31 55.35 C15.14 42.12, 25.69 27.77, 47.94 8.84 M5.73 54.45 C17.83 41.67, 28.29 28.11, 45.79 7.45 M3.91 61.88 C22.39 39.91, 43.73 16.08, 53.7 4.06 M5.27 62.2 C24.54 38.08, 46.12 15.33, 56.3 2.47 M3.19 71.81 C23.38 43.2, 48.07 20.41, 62.47 1.67 M2.36 69.74 C19.16 50.62, 35.54 33.9, 60.85 4.35 M-0.88 78.6 C15.95 64.74, 27.76 48.79, 66.05 1.65 M-0.14 79.34 C21.73 53.7, 41.76 30.96, 67.1 3.03 M0.06 83.85 C18.38 66.54, 31.36 47.59, 72.68 3.69 M2.17 83.39 C20.79 62.65, 39.37 41.13, 71.53 2.93 M1.5 90.39 C29.97 55.04, 61.04 22.12, 77.43 3.88 M3.22 88.24 C27.08 60.35, 50.69 32.82, 77.06 2.35 M5.04 93.7 C32.34 59.16, 63.18 21.24, 80.65 3.99 M4.65 92.41 C30.03 64.38, 54.64 35, 82.82 3.51 M3.59 97.17 C30.84 65.49, 56.73 35.2, 88.57 3.48 M4.32 98.55 C32.81 65.54, 61.68 33.37, 87.9 3.32 M5.91 103.63 C37.87 65.78, 73.18 28.03, 92.38 3.95 M6.07 103.74 C38.57 66.84, 69.79 29.34, 93.78 2.57 M5.07 106.81 C26.52 85.03, 46.67 61.62, 98.15 3.71 M7.42 107.73 C34.76 78.4, 59.92 46.14, 97.42 3.24 M6.99 114.88 C28.77 90.46, 47.94 65.35, 101.21 6.46 M7.37 113.17 C43.37 71.48, 78.96 29.83, 100.95 5.97 M12.86 115.66 C49.96 73.43, 87.06 31.48, 104.74 7.58 M10.1 115.61 C33.84 91.86, 55.23 65.98, 105.45 7.04 M13.13 119.68 C44.49 81.84, 77.33 43.95, 110.27 11.37 M14.15 119.31 C35.82 92.77, 59.33 66.28, 108.75 10.41 M16.49 121.86 C44.94 88.64, 74.34 55.46, 110.13 10.56 M16.71 121.67 C38.4 97.93, 59.02 73.52, 111.12 11.96 M20.52 123.79 C44.96 98.57, 67.6 68.7, 116 13.8 M19.46 124.24 C44.09 96.36, 67.88 69.93, 115.06 13.74 M22.09 127.02 C52.14 91.8, 84.22 56.08, 119.38 13.15 M22.3 126.76 C44.97 103.15, 65.46 77.32, 119.01 14.18 M23.91 130.23 C64.54 87.48, 103.74 43.09, 124.1 15.61 M25.05 131.12 C61.62 86.69, 97.04 45.36, 123.13 16.42 M26.36 134.03 C48.11 112.65, 68.9 89.37, 126.16 19.35 M26.63 132.86 C50.34 106.42, 74.21 80.26, 126.39 19.23 M29.28 134.47 C67.7 91.87, 108.4 48.18, 127.54 23.71 M30.02 135.46 C57.85 106.35, 86.35 73.52, 127.62 23.82 M31.22 140.51 C55.43 113.92, 75.18 91.92, 133.37 23.92 M32.82 138.56 C65.72 101.59, 99.56 63.08, 131.92 25.28 M36.5 142.01 C71.06 100.4, 105.59 57.23, 132.48 27.18 M37.49 140.69 C61.5 113.22, 84.56 84.7, 134.48 29.39 M38.51 143.79 C72.67 106.81, 107.57 66.93, 135.14 30.08 M39.98 142.06 C65.12 114.17, 90.91 84.94, 137.59 30.84 M44.74 143.34 C65.72 122.02, 84.73 100.61, 140.35 36.16 M43.98 145.07 C67.2 115.65, 93.15 87.91, 139.1 35.48 M50.03 146.04 C80.27 106.47, 115.88 69.89, 141.55 37.34 M49.38 146.23 C66.62 123.59, 86.87 100.61, 141.46 36.58 M51.06 146.97 C79.73 114.21, 111.02 78.72, 145.86 39.51 M52.06 146.77 C83.55 110.75, 115.15 74.48, 144.21 41.06 M54.82 149.87 C83.55 114.61, 115.88 80.77, 147.89 43.94 M55.6 148.29 C77.15 126.01, 97.88 102.92, 146.98 43.78 M60.47 149.65 C81.55 126.98, 104.28 98.63, 147.63 50.37 M60.35 152.09 C92.71 113.83, 126.37 74.63, 148.64 49.24 M65.14 150.39 C84.76 125.66, 108.4 101.29, 151.47 54.65 M64.57 151.83 C85.45 127.95, 106.13 103.28, 149.66 54.11 M67.15 154.35 C93.96 123.27, 114.79 97.9, 150.84 59.1 M68.79 153.4 C95 122.83, 120.72 92.37, 151.88 58.23 M75.14 152.71 C100.65 123.17, 125.82 95.33, 154.03 60.69 M74.26 152.31 C94.6 128.17, 115.79 106.47, 151.64 61.6 M79.27 150.58 C100.32 131.48, 120.83 106.28, 154.61 66.07 M79.4 153.51 C108.57 117.75, 136.95 85.31, 153.46 68.12 M83.64 153.98 C98.04 133.78, 112.74 117.35, 153.33 74.06 M85.43 153.08 C106.16 128.43, 126.4 104.7, 155.16 72.89 M89.58 151.35 C110.64 126.08, 135.11 99.61, 155.27 78.4 M90.94 152.57 C106.64 133.68, 124.77 112.64, 156.28 77.64 M96.68 151.81 C114.65 127.1, 135.1 106.22, 155.72 86.28 M94.16 151.88 C110.79 134.14, 127.95 114.06, 153.19 84.05 M100.09 152.4 C108.77 141.65, 122.96 128.04, 152.53 92.76 M99.52 153.38 C113.21 137.04, 129.54 118.85, 152.71 92.91 M112.11 147.03 C123.78 134.2, 137.29 116.51, 150.76 101.34 M110.48 147.51 C126.19 130.32, 141.89 111.65, 150.03 101.47" stroke="#a5d8ff" stroke-width="0.5" fill="none"/><path d="M91.71 0.81 C102.29 2.02, 113.87 9.37, 122.88 16.19 C131.88 23, 140.57 31.8, 145.73 41.72 C150.9 51.64, 153.6 64.5, 153.87 75.7 C154.14 86.89, 152.04 98.99, 147.37 108.88 C142.69 118.77, 134.24 127.93, 125.84 135.03 C117.44 142.12, 107.54 148.73, 96.97 151.47 C86.4 154.2, 73.35 153.7, 62.41 151.44 C51.47 149.19, 40.42 144.35, 31.33 137.94 C22.25 131.54, 13 122.93, 7.89 113.01 C2.77 103.09, 0.87 89.61, 0.66 78.43 C0.45 67.26, 2.14 56.16, 6.61 45.96 C11.07 35.77, 18.77 24.62, 27.45 17.26 C36.13 9.91, 46.04 4.05, 58.69 1.85 C71.34 -0.36, 94.63 2.69, 103.35 4.03 C112.06 5.37, 111.51 8.74, 110.99 9.88 M99.73 4.07 C110.05 6.44, 121.51 14.58, 129.68 22.17 C137.85 29.75, 144.89 39.27, 148.75 49.56 C152.6 59.86, 153.59 72.88, 152.82 83.94 C152.05 95, 149.38 106.49, 144.12 115.94 C138.85 125.39, 130.82 134.3, 121.25 140.64 C111.68 146.97, 97.94 152.1, 86.68 153.94 C75.42 155.79, 64.31 154.98, 53.69 151.71 C43.08 148.44, 31.23 142.16, 22.99 134.34 C14.76 126.52, 8.29 115.18, 4.27 104.79 C0.25 94.41, -2.08 82.99, -1.13 72.04 C-0.17 61.09, 3.92 49.13, 9.99 39.07 C16.06 29.01, 25.92 17.97, 35.3 11.68 C44.67 5.39, 55.47 2.56, 66.22 1.33 C76.97 0.09, 94.21 3.77, 99.79 4.27 C105.37 4.78, 99.89 3.04, 99.7 4.35" stroke="#1e1e1e" stroke-width="1" fill="none"/></g><g stroke-linecap="round" transform="translate(118.56728322382662 278.4486331176669) rotate(0 76.978515625 76.978515625)"><path d="M20.23 25.53 C20.23 25.53, 20.23 25.53, 20.23 25.53 M20.23 25.53 C20.23 25.53, 20.23 25.53, 20.23 25.53 M12.35 40.62 C17.61 32.87, 29.44 24.81, 36 14.95 M10.18 43.33 C17.81 34.48, 26.08 24.52, 35.76 13.46 M5.93 55.47 C19.75 37.17, 39.97 18.26, 46.13 6.75 M4.02 56.15 C19.38 39.04, 34.19 22.53, 47.81 6.84 M2.05 63.61 C16.16 48.62, 29.39 30.28, 55.4 3.65 M4.43 63.37 C20.78 43.23, 37.57 24.59, 53.98 5.72 M3.6 70.57 C23.46 48.2, 39.34 27.45, 59.13 2.14 M1.97 70.54 C15.44 54.98, 26.96 42.48, 60.16 3.82 M3.84 77.46 C22.47 50.25, 45.18 24.97, 65.7 1.62 M2.69 76.82 C22.48 52.52, 43.89 28.22, 67.74 2.52 M0.38 84.59 C21.49 59.89, 39.83 37.42, 74.34 1.97 M1.36 83.32 C18.16 64.05, 34.41 45.26, 72.57 1.14 M1.66 88.7 C22.81 62, 48.33 35.16, 79.6 -1.06 M1.24 89.02 C28.26 59.43, 54.98 29.86, 78.69 -0.83 M3.37 93.9 C27.02 68.65, 52.3 40.33, 81.87 2 M3.71 94.58 C26.86 65.25, 52.61 36.65, 84.14 0.74 M3.14 98.54 C30.29 70.15, 53.64 42.89, 89.85 3 M4.23 97.84 C28.85 70.21, 55.36 42.27, 88.61 2.16 M5.56 100.87 C38.3 66.57, 68.21 29.14, 90.39 3.24 M6.58 102.29 C39.78 64.85, 72.37 25.86, 92.64 3.64 M8.03 105.53 C36.52 73.33, 65.88 38.54, 97.67 3.66 M8.01 106.34 C26.63 86.96, 44.51 67.29, 95.93 6.31 M9.28 111.12 C28.64 89.79, 47.7 70.63, 101.72 4.9 M8.98 111.56 C37.84 78.83, 66.26 46.38, 101.18 6.98 M9.87 113.65 C32.62 89.63, 51.58 65.53, 103.56 7.77 M10.9 114.94 C40.81 82.95, 68.7 52.66, 104.45 7.35 M12.06 118.8 C37.42 90.51, 64 63.16, 111.04 9.49 M13.24 119.87 C47.31 81.2, 81.29 40.79, 108.27 9.05 M15.5 121.65 C44.37 90.51, 75.85 57.6, 115.32 11.21 M14.57 122.66 C44.23 88.96, 73.7 54.99, 113.38 9.87 M16.62 124.24 C49.65 86.19, 81.46 49.6, 118.75 10.26 M17.02 124.79 C42.4 96.53, 66.84 69.2, 117.83 10.76 M19.61 128.01 C39.62 106.17, 63.19 79.27, 120.66 14.12 M20.7 128.15 C61.15 82.26, 99.1 38.93, 120.01 14.6 M25.68 132.58 C57.6 93.03, 91.12 54.49, 121.86 15.96 M24.09 130.55 C48.45 105.31, 70.98 79.28, 122.47 16.41 M29.53 131.24 C60.53 93.01, 97.79 52.89, 127.84 19.61 M27.78 131.96 C48.89 108.74, 69.73 85.09, 126.28 19.13 M29.19 133.45 C68.05 93.97, 104.6 52.85, 129.25 23.08 M31.59 135.75 C64.49 96.65, 98.42 56.33, 128.82 23.89 M34.52 139.84 C62.28 106.31, 87.37 74, 133.05 27.04 M34.29 138.49 C60.45 110.15, 84.77 80.48, 132.17 25.18 M37.03 140.71 C57.97 115.72, 78.71 92.28, 135.05 26.86 M36.69 141.12 C72.7 99.16, 108.02 59.09, 134.88 27.72 M39.07 142.8 C63.48 115.17, 87.56 84.61, 138.38 29.8 M40.07 142.53 C69.53 108.32, 100.8 74.54, 137.72 32.35 M42.3 144.75 C65.88 119.23, 86.81 95.93, 140 32.3 M41.93 145.76 C66.39 118.79, 88.38 91.31, 139.39 34.08 M45.54 147.11 C75.15 113.92, 99.76 82.59, 141.88 37.49 M47.01 146.74 C83.51 105.29, 119.21 63.99, 141.02 38.35 M52.64 149.16 C75.01 120.03, 105.34 86.02, 142.12 43.15 M50.52 147.86 C74.72 121, 99.2 91.26, 142.48 41.75 M55.59 148.78 C85.8 114.96, 117.37 78.21, 147.48 45.74 M54.38 150.64 C89.76 111.45, 123.27 71.87, 146.19 46.79 M57.7 152.07 C78.59 128.14, 97.67 110.8, 148.6 49.4 M59.77 152.03 C90.91 115.75, 122.42 78.28, 147.58 49.63 M64.14 154.55 C85.53 127.19, 110.61 95.7, 148.38 52.93 M62.83 152.39 C82.73 130.7, 102.65 106.27, 148.74 53.88 M68.35 154.38 C95.62 118.84, 124.23 85.36, 151.93 56.31 M68.37 153.5 C90.96 127.66, 113.31 101.53, 151.57 57.76 M72.66 156.41 C102.08 120.13, 128.95 85.87, 152.32 62.67 M71.7 155.29 C101.22 118.78, 132.13 84.56, 152.85 60.96 M74.69 157.43 C93.45 137.31, 107.48 120.23, 156.5 64.85 M76.34 157.87 C99.41 129.25, 122.27 103.39, 155.32 65.79 M79.86 157.11 C106.67 128.7, 128.29 104.16, 155.73 70.59 M81.72 155.23 C102.83 131.05, 124.23 106.98, 155.47 71.27 M88.66 152.07 C101.57 140.31, 116.39 121.62, 152.72 79.06 M89.7 154.06 C110.21 131.22, 129.79 106.77, 153.86 78.29 M95.05 152.63 C110.73 137.62, 126.82 117.17, 151.53 87.33 M94.28 153.22 C112.45 132.9, 130.99 112.68, 154.25 84.92 M100.3 152.72 C116.6 133.8, 133.72 115.89, 152.07 92.16 M100.64 152.47 C117.7 132.26, 134.18 115.11, 153.41 92.88 M108.15 150.97 C118.77 136.78, 127.13 126.09, 152.56 99.23 M109.57 148.21 C119.45 137.7, 128.77 126.71, 152.8 99.59 M123.32 139.92 C128.16 135.97, 130.48 128.98, 142.85 114.95 M121.2 139.5 C127.69 131.57, 135.62 124.77, 143.14 116.67" stroke="#ffc9c9" stroke-width="0.5" fill="none"/><path d="M47.28 4.83 C56.71 -0.47, 69.92 -1.47, 81.11 -0.78 C92.31 -0.09, 104.82 3.28, 114.46 8.97 C124.1 14.66, 132.41 24.09, 138.95 33.37 C145.49 42.65, 151.69 53.86, 153.72 64.65 C155.76 75.45, 154.42 87.46, 151.16 98.14 C147.91 108.82, 141.57 120.51, 134.19 128.75 C126.81 136.99, 117.16 143.32, 106.91 147.58 C96.66 151.85, 83.87 155.05, 72.69 154.36 C61.52 153.66, 49.8 148.94, 39.87 143.41 C29.93 137.88, 19.6 130.23, 13.1 121.17 C6.61 112.12, 2.53 99.96, 0.9 89.07 C-0.73 78.18, 0.1 66.42, 3.32 55.83 C6.54 45.24, 11.92 34.23, 20.23 25.52 C28.54 16.82, 46.81 7.19, 53.16 3.61 C59.52 0.02, 57.91 2.64, 58.37 4 M45.28 7.84 C54.56 2.78, 69.35 -0.15, 80.53 -0.15 C91.7 -0.15, 102.66 2.53, 112.35 7.85 C122.04 13.17, 131.91 22.53, 138.68 31.78 C145.45 41.02, 151.07 52.46, 152.98 63.32 C154.89 74.18, 153.16 86.46, 150.16 96.95 C147.15 107.44, 141.85 118.01, 134.96 126.25 C128.07 134.5, 118.96 141.87, 108.81 146.42 C98.66 150.97, 85.4 154.03, 74.05 153.55 C62.7 153.07, 50.53 148.73, 40.71 143.57 C30.88 138.41, 21.82 131.57, 15.09 122.6 C8.36 113.63, 2.31 100.46, 0.34 89.75 C-1.63 79.04, 0.37 69, 3.28 58.35 C6.19 47.69, 10.39 34.46, 17.79 25.82 C25.19 17.18, 42.95 9.76, 47.69 6.51 C52.44 3.26, 45.74 5.25, 46.24 6.3" stroke="#1e1e1e" stroke-width="1" fill="none"/></g><g stroke-linecap="round"><g transform="translate(121.48186379930371 197.28287291751553) rotate(0 18.91225662542766 38.71087996695417)"><path d="M-0.34 0.66 C5.99 13.61, 31.12 64.98, 37.62 77.75 M1.68 -0.03 C7.86 12.53, 30.46 62.7, 36.57 75.8" stroke="#1e1e1e" stroke-width="1" fill="none"/></g><g transform="translate(121.48186379930371 197.28287291751553) rotate(0 18.91225662542766 38.71087996695417)"><path d="M16.61 54.1 C21.74 61.64, 26.69 67.95, 35.99 76.04 M14.92 55.41 C22.53 62.18, 31.97 70.09, 36.88 76.16" stroke="#1e1e1e" stroke-width="1" fill="none"/></g><g transform="translate(121.48186379930371 197.28287291751553) rotate(0 18.91225662542766 38.71087996695417)"><path d="M35.26 45.56 C35.37 55.35, 35.28 63.97, 35.99 76.04 M33.57 46.87 C34.01 56.96, 36.34 68.13, 36.88 76.16" stroke="#1e1e1e" stroke-width="1" fill="none"/></g></g><mask/><g stroke-linecap="round"><g transform="translate(254.87015212543974 284.6273390628657) rotate(0 41.00104093500465 -59.796073396079635)"><path d="M-1.11 0.36 C12.56 -19.82, 68.76 -100.1, 82.66 -120.02 M0.51 -0.49 C14.02 -20, 68.52 -98.57, 82.05 -118.7" stroke="#1e1e1e" stroke-width="1" fill="none"/></g><g transform="translate(254.87015212543974 284.6273390628657) rotate(0 41.00104093500465 -59.796073396079635)"><path d="M75.2 -88.55 C76.27 -99.4, 80.36 -108.71, 82.5 -117.37 M74.52 -90.34 C76.85 -100.27, 80.28 -109.59, 82.42 -118.53" stroke="#1e1e1e" stroke-width="1" fill="none"/></g><g transform="translate(254.87015212543974 284.6273390628657) rotate(0 41.00104093500465 -59.796073396079635)"><path d="M58.27 -100.14 C65.45 -106.72, 75.55 -111.92, 82.5 -117.37 M57.59 -101.93 C65.83 -107.68, 75.24 -112.9, 82.42 -118.53" stroke="#1e1e1e" stroke-width="1" fill="none"/></g></g><mask/><g stroke-linecap="round"><g transform="translate(279.85576144571974 66.26612243392657) rotate(0 -50.736076901641574 5.227846064845849)"><path d="M-0.1 -0.56 C-16.67 1.15, -83.55 8.8, -100.28 10.45 M-1.62 1.76 C-18.15 3.66, -84.08 10.6, -100.6 11.98" stroke="#1e1e1e" stroke-width="1" fill="none"/></g><g transform="translate(279.85576144571974 66.26612243392657) rotate(0 -50.736076901641574 5.227846064845849)"><path d="M-74.45 1.06 C-79.62 3.64, -87.59 5.63, -100.47 12.73 M-74.07 -0.65 C-83.31 4.26, -93.78 8.6, -100.73 12.23" stroke="#1e1e1e" stroke-width="1" fill="none"/></g><g transform="translate(279.85576144571974 66.26612243392657) rotate(0 -50.736076901641574 5.227846064845849)"><path d="M-72.49 21.49 C-78.13 19.46, -86.54 16.84, -100.47 12.73 M-72.1 19.77 C-82.24 16.87, -93.45 13.39, -100.73 12.23" stroke="#1e1e1e" stroke-width="1" fill="none"/></g></g><mask/></svg>