<?xml version="1.0" encoding="UTF-8" standalone="no"?>
<!DOCTYPE svg PUBLIC "-//W3C//DTD SVG 1.1//EN" "http://www.w3.org/Graphics/SVG/1.1/DTD/svg11.dtd">
<svg width="100%" height="100%" viewBox="0 0 1042 555" version="1.1" xmlns="http://www.w3.org/2000/svg" xmlns:xlink="http://www.w3.org/1999/xlink" xml:space="preserve" xmlns:serif="http://www.serif.com/" style="fill-rule:evenodd;clip-rule:evenodd;stroke-linejoin:round;stroke-miterlimit:2;">
    <g transform="matrix(1,0,0,1,-440,-263)">
        <g id="Group_24">
            <g id="Group_23" transform="matrix(1,0,0,1,439.989,262.965)">
                <g id="Path_299" transform="matrix(1,0,0,1,-79.34,-172.91)">
                    <path d="M1040.82,611.12C1039.66,613.62 1038.5,616.087 1037.35,618.52C1035.55,622.3 1033.77,626.007 1032.02,629.64C1031.24,631.25 1030.46,632.83 1029.7,634.41C1021.1,651.98 1013.07,667.52 1006.25,680.3C993.662,703.855 969.146,718.723 942.44,719L790.79,720.65L789.19,720.65L776.19,720.79L765.07,720.91L730.97,721.28L729.59,721.28L712.23,721.47L711.7,721.47L604.7,722.63L509.19,723.63L498.08,723.75L429.08,724.5L429,724.5L384.25,724.98L383.77,724.98L242.27,726.51L199.94,726.97C196.336,727.011 192.732,726.831 189.15,726.43C187.93,726.29 186.71,726.13 185.5,725.94C165.762,722.893 147.653,713.17 134.21,698.4C116,678.37 102.75,655 93.85,629.64C92.563,625.98 91.363,622.273 90.25,618.52C59.44,514.37 97,380 164.6,290.08C167.433,286.32 170.313,282.653 173.24,279.08L173.31,279C194.1,253.48 217.41,232.16 242.24,217C286.24,190.09 334.99,182.51 382.94,205.1C423.51,224.22 461.39,233.21 498.11,235.65C501.82,235.89 505.53,236.07 509.22,236.18C593.45,238.83 672.39,208.48 765.09,188.89C768.78,188.11 772.48,187.34 776.21,186.61C842.34,173.45 915.7,166.51 1002.94,181.1C1012,182.581 1020.95,184.72 1029.7,187.5C1033.55,188.74 1037.25,190.073 1040.82,191.5C1082.46,208.44 1105.17,239.74 1114.82,278.96C1115.73,282.6 1116.52,286.303 1117.19,290.07C1134.3,384.41 1084.19,518.23 1040.82,611.12Z" style="fill:rgb(242,242,242);fill-rule:nonzero;"/>
                </g>
                <g id="Path_300" transform="matrix(1,0,0,1,-79.34,-172.91)">
                    <path d="M576.36,618.52C575.957,622.26 575.332,625.974 574.49,629.64L668.19,629.64L668.19,618.52L576.36,618.52ZM498.11,681.33L509.22,681.24L509.22,653.77C505.41,653.6 501.7,653.43 498.11,653.25L498.11,681.33ZM265.19,618.52L265.19,629.64L463.69,629.64L463.69,618.52L265.19,618.52ZM1114.87,279L1040.87,279L1040.87,191.51C1037.3,190.063 1033.6,188.73 1029.75,187.51L1029.75,279L776.21,279L776.21,186.58C772.48,187.31 768.78,188.08 765.09,188.86L765.09,279L509.22,279L509.22,236.15C505.53,236.04 501.82,235.86 498.11,235.62L498.11,279L242.24,279L242.24,217C217.41,232.16 194.1,253.48 173.31,279L173.24,279L173.24,279.08C170.307,282.68 167.427,286.347 164.6,290.08L173.24,290.08L173.24,618.52L90.24,618.52C91.347,622.273 92.547,625.98 93.84,629.64L173.23,629.64L173.23,723.26C177.224,724.482 181.302,725.414 185.43,726.05C186.64,726.24 187.86,726.4 189.08,726.54C192.662,726.941 196.266,727.121 199.87,727.08L242.2,726.62L242.2,629.62L498.11,629.62L498.11,723.83L509.22,723.71L509.22,629.64L765.09,629.64L765.09,721L776.21,720.88L776.21,629.64L1029.7,629.64L1029.7,634.41C1030.46,632.83 1031.24,631.25 1032.02,629.64C1033.77,626.007 1035.55,622.3 1037.35,618.52C1038.5,616.093 1039.66,613.627 1040.82,611.12L1040.82,290.12L1117.24,290.12C1116.57,286.327 1115.78,282.62 1114.87,279ZM242.24,618.52L242.24,290.08L498.11,290.08L498.11,618.52L242.24,618.52ZM509.24,618.52L509.24,290.08L765.09,290.08L765.09,618.52L509.24,618.52ZM1029.72,618.52L776.21,618.52L776.21,290.08L1029.7,290.08L1029.72,618.52Z" style="fill-opacity:0.1;fill-rule:nonzero;"/>
                </g>
                <path id="Path_301" d="M863.09,533.65L863.09,546.65L711.17,548.05L709.55,548.08L651.81,548.61L650.43,548.63L632.88,548.78L632.36,548.78L525.38,549.77L349.77,551.4L349.62,551.4L304.97,551.82L304.49,551.83L106.09,553.65L106.09,538.65L152.74,510.65L246.34,509.87L248.34,509.86L249,509.85L251,509.82L295.94,509.45L297.95,509.44L298.59,509.43L300.59,509.42L315,509.3L315.38,509.29L350.93,508.99L351.22,508.99L628.62,506.65L635.41,506.6L636.09,506.6L641.27,506.55L678.92,506.24L680.92,506.21L682.77,506.19L683.73,506.19L695.44,506.1L697.76,506.07L700.87,506.05L710.62,505.96L726.09,505.83L728.09,505.81L731.57,505.79L732.22,505.79L806.93,505.15L863.09,533.65Z" style="fill:rgb(101,97,125);fill-rule:nonzero;"/>
                <path id="Path_302" d="M863.09,533.65L863.09,546.65L711.17,548.05L709.55,548.08L651.81,548.61L650.43,548.63L632.88,548.78L632.36,548.78L525.38,549.77L349.77,551.4L349.62,551.4L304.97,551.82L304.49,551.83L106.09,553.65L106.09,538.65L152.74,510.65L246.34,509.87L248.34,509.86L249,509.85L251,509.82L295.94,509.45L297.95,509.44L298.59,509.43L300.59,509.42L315,509.3L315.38,509.29L350.93,508.99L351.22,508.99L628.62,506.65L635.41,506.6L636.09,506.6L641.27,506.55L678.92,506.24L680.92,506.21L682.77,506.19L683.73,506.19L695.44,506.1L697.76,506.07L700.87,506.05L710.62,505.96L726.09,505.83L728.09,505.81L731.57,505.79L732.22,505.79L806.93,505.15L863.09,533.65Z" style="fill-opacity:0.2;fill-rule:nonzero;"/>
                <g id="Path_303" transform="matrix(1,0,0,1,-79.34,-172.91)">
                    <path d="M375.44,656.57L375.44,681.06C375.441,683.424 374.075,685.586 371.94,686.6C371.16,686.978 370.307,687.183 369.44,687.2L334.54,687.94C333.608,687.962 332.683,687.767 331.84,687.37C329.666,686.374 328.267,684.191 328.27,681.8L328.27,656.57L375.44,656.57Z" style="fill:rgb(63,61,86);fill-rule:nonzero;"/>
                </g>
                <g id="Path_304" transform="matrix(1,0,0,1,-79.34,-172.91)">
                    <path d="M375.44,656.57L375.44,681.06C375.441,683.424 374.075,685.586 371.94,686.6C371.16,686.978 370.307,687.183 369.44,687.2L334.54,687.94C333.608,687.962 332.683,687.767 331.84,687.37C329.666,686.374 328.267,684.191 328.27,681.8L328.27,656.57L375.44,656.57Z" style="fill-opacity:0.1;fill-rule:nonzero;"/>
                </g>
                <g id="Path_305" transform="matrix(1,0,0,1,-79.34,-172.91)">
                    <path d="M377.44,656.57L377.44,681.06C377.441,683.424 376.075,685.586 373.94,686.6C373.16,686.978 372.307,687.183 371.44,687.2L336.54,687.94C335.608,687.962 334.683,687.767 333.84,687.37C331.666,686.374 330.267,684.191 330.27,681.8L330.27,656.57L377.44,656.57Z" style="fill:rgb(63,61,86);fill-rule:nonzero;"/>
                </g>
                <g id="Rectangle_137" transform="matrix(1,0,0,1,680.92,483.65)">
                    <rect x="0" y="0" width="47.17" height="31.5" style="fill:rgb(63,61,86);"/>
                </g>
                <g id="Rectangle_138" transform="matrix(1,0,0,1,680.92,483.65)">
                    <rect x="0" y="0" width="47.17" height="31.5" style="fill-opacity:0.1;"/>
                </g>
                <g id="Rectangle_139" transform="matrix(1,0,0,1,678.92,483.65)">
                    <rect x="0" y="0" width="47.17" height="31.5" style="fill:rgb(63,61,86);"/>
                </g>
                <path id="Path_306" d="M298.09,483.65L298.09,488.62L250.92,489.88L250.92,483.65L298.09,483.65Z" style="fill-opacity:0.1;fill-rule:nonzero;"/>
                <g id="Path_307" transform="matrix(1,0,0,1,-79.34,-172.91)">
                    <path d="M460.69,485.27L460.69,653.47C460.665,655.59 458.959,657.341 456.84,657.42L265.19,662.52L265.14,662.52C262.983,662.493 261.217,660.727 261.19,658.57L261.19,485.27C261.217,483.113 262.983,481.347 265.14,481.32L456.74,481.32C458.897,481.347 460.663,483.113 460.69,485.27Z" style="fill:rgb(101,97,125);fill-rule:nonzero;"/>
                </g>
                <g id="Path_308" transform="matrix(1,0,0,1,-79.34,-172.91)">
                    <path d="M265.19,481.32L265.19,662.52L265.14,662.52C262.983,662.493 261.217,660.727 261.19,658.57L261.19,485.27C261.217,483.113 262.983,481.347 265.14,481.32L265.19,481.32Z" style="fill-opacity:0.1;fill-rule:nonzero;"/>
                </g>
                <path id="Path_309" d="M194.59,319.15L372.09,319.15L372.09,467.4L194.59,471.4L194.59,319.15Z" style="fill:white;fill-rule:nonzero;"/>
                <path id="Path_310" d="M726.09,483.65L726.09,490.06L678.92,488.8L678.92,483.65L726.09,483.65Z" style="fill-opacity:0.1;fill-rule:nonzero;"/>
                <g id="Path_311" transform="matrix(1,0,0,1,-79.34,-172.91)">
                    <path d="M867.69,485.27L867.69,658.57C867.663,660.745 865.866,662.52 863.69,662.52L672,657.42C669.881,657.341 668.175,655.59 668.15,653.47L668.15,485.27C668.177,483.113 669.943,481.347 672.1,481.32L863.7,481.32C865.872,481.325 867.663,483.098 867.69,485.27Z" style="fill:rgb(101,97,125);fill-rule:nonzero;"/>
                </g>
                <g id="Path_312" transform="matrix(1,0,0,1,-79.34,-172.91)">
                    <path d="M867.69,485.27L867.69,658.57C867.663,660.745 865.866,662.52 863.69,662.52L863.69,481.32C865.866,481.32 867.663,483.095 867.69,485.27Z" style="fill-opacity:0.1;fill-rule:nonzero;"/>
                </g>
                <path id="Path_313" d="M775.59,319.15L598.09,319.15L598.09,467.4L775.59,471.4L775.59,319.15Z" style="fill:white;fill-rule:nonzero;"/>
                <g id="Path_314" transform="matrix(1,0,0,1,-79.34,-172.91)">
                    <path d="M663.19,485.27L663.19,653.47C663.165,655.59 661.459,657.341 659.34,657.42L467.69,662.52C465.514,662.52 463.717,660.745 463.69,658.57L463.69,485.27C463.717,483.113 465.483,481.347 467.64,481.32L659.24,481.32C661.397,481.347 663.163,483.113 663.19,485.27Z" style="fill:rgb(101,97,125);fill-rule:nonzero;"/>
                </g>
                <path id="Path_315" d="M397.09,319.15L574.59,319.15L574.59,467.4L397.09,471.4L397.09,319.15Z" style="fill:rgb(66,103,178);fill-rule:nonzero;"/>
                <path id="Path_316" d="M863.09,533.65L863.09,546.65L711.17,548.05L709.55,548.08L651.81,548.61L650.43,548.63L632.88,548.78L632.36,548.78L525.38,549.77L349.77,551.4L349.62,551.4L304.97,551.82L304.49,551.83L106.09,553.65L106.09,538.65L308.6,537.32L309.08,537.32L350.07,537.04L350.26,537.04L633.34,535.17L633.63,535.17L633.8,535.16L634.27,535.16L639.06,535.13L640.52,535.13L715.01,534.63L719.41,534.61L720.39,534.6L863.09,533.65Z" style="fill-opacity:0.1;fill-rule:nonzero;"/>
                <g id="Ellipse_111" transform="matrix(1,0,0,1,435.93,246.82)">
                    <circle cx="51.33" cy="51.33" r="51.33" style="fill:rgb(251,190,190);"/>
                </g>
                <g id="Path_317" transform="matrix(1,0,0,1,-79.34,-172.91)">
                    <path d="M617.94,550.07C617.94,550.07 518.44,562.07 527.94,550.07C531.38,545.73 532.33,532.87 532.14,518.22C532.08,513.77 531.92,509.16 531.69,504.57C530.59,482.57 527.94,461.07 527.94,461.07C527.94,461.07 614.94,420.07 604.94,452.57C600.94,465.7 602.25,484.14 605.29,501.45C606.18,506.5 607.21,511.45 608.29,516.15C610.926,527.614 614.147,538.935 617.94,550.07Z" style="fill:rgb(251,190,190);fill-rule:nonzero;"/>
                </g>
                <g id="Path_318" transform="matrix(1,0,0,1,-79.34,-172.91)">
                    <path d="M585.47,546C596.98,543.87 609.17,540 620,544.46C622.85,545.63 625.47,547.34 628.39,548.32C631.31,549.3 634.51,549.54 637.55,550.23C648.23,552.65 656.89,560.78 662.45,570.23C668.01,579.68 670.89,590.37 673.71,600.95L680.61,626.78C686.61,649.23 692.61,671.87 694,695.08C610.467,699.862 526.742,700.339 443.16,696.51C448.6,686.17 454.16,675.2 453.7,663.51C453.24,651.82 446.51,640.29 448.94,628.77C450.49,621.43 455.51,615.38 458.58,608.55C467.33,589.03 460.52,562.76 475.9,547.9C482.82,541.22 492.9,538.69 502.53,539.01C514.81,539.42 527.38,543.25 539.53,545.12C555.09,547.48 569.79,548.88 585.47,546Z" style="fill:rgb(255,101,132);fill-rule:nonzero;"/>
                </g>
                <g id="Path_319" transform="matrix(1,0,0,1,-79.34,-172.91)">
                    <path d="M716.37,657.17L716.27,658.6L716.27,658.7L716.1,661L714.77,679.51L713.16,701.81L712.7,708.09L711.7,721.53L711.7,721.7L604.7,722.7L429.11,724.6L429.11,725.44L428.97,725.44L428.97,724.32L429.42,709.96L430.28,681.9L431.02,658.11L431.09,655.74C431.263,650.088 435.96,645.532 441.615,645.532C441.914,645.532 442.212,645.545 442.51,645.57C447.23,645.97 453.36,646.46 460.69,646.98L463.69,647.2C506.02,650.14 584.25,653.94 663.19,649.2C664.85,649.11 666.52,649.01 668.19,648.89C680.43,648.12 692.66,647.13 704.77,645.89C705.135,645.852 705.501,645.833 705.867,645.833C711.644,645.833 716.397,650.586 716.397,656.363C716.397,656.615 716.388,656.868 716.37,657.12L716.37,657.17Z" style="fill-opacity:0.1;fill-rule:nonzero;"/>
                </g>
                <g id="Path_320" transform="matrix(1,0,0,1,-79.34,-172.91)">
                    <path d="M429.08,725.44L429.08,724.6L604.7,722.69L711.7,721.69L712,721.69L712,721.52L713,708.08L713.43,702.08L715.07,679.47L716.36,661.57L716.36,661.13C716.42,660.305 716.383,659.476 716.25,658.66C716.256,658.627 716.256,658.593 716.25,658.56C715.975,656.872 715.288,655.278 714.25,653.92C712.014,651.053 708.446,649.538 704.83,649.92C692.72,651.16 680.49,652.15 668.25,652.92C666.58,653.04 664.91,653.14 663.25,653.23C584.31,657.92 506.08,654.12 463.75,651.23L460.75,651.01C453.42,650.49 447.29,650.01 442.57,649.6C437.219,649.148 432.335,652.855 431.33,658.13C431.229,658.671 431.169,659.22 431.15,659.77L430.47,681.93L429.54,710L429.1,724.36L429.1,725.48L429.08,725.44Z" style="fill:rgb(63,61,86);fill-rule:nonzero;"/>
                </g>
                <g id="Path_321" transform="matrix(1,0,0,1,-79.34,-172.91)">
                    <path d="M716.67,664.18L715.44,679.51L713.61,702.36L713.15,708.08L712.15,720.89L712.09,721.53L712.09,721.7L711.94,723.18L712.05,721.7L711.76,721.7L604.76,722.7L429.11,724.6L429.11,724.32L429.6,709.96L430.6,681.9L431.24,663.25C431.304,661.097 432.458,659.117 434.3,658C435.432,657.306 436.757,656.991 438.08,657.1C440.18,657.27 442.76,657.47 445.77,657.69C450.66,658.05 456.69,658.47 463.71,658.91C476.71,659.73 493.02,660.61 511.71,661.33C563.71,663.33 633.91,664 700.59,658.16C703.59,657.9 706.69,657.61 709.72,657.32C710.919,657.2 712.128,657.43 713.2,657.98C713.504,658.131 713.792,658.312 714.06,658.52C714.93,659.151 715.62,659.999 716.06,660.98C716.162,661.175 716.246,661.379 716.31,661.59C716.61,662.418 716.733,663.301 716.67,664.18Z" style="fill-opacity:0.1;fill-rule:nonzero;"/>
                </g>
                <g id="Path_322" transform="matrix(1,0,0,1,-79.34,-172.91)">
                    <path d="M377.44,677.87L377.44,681.06C377.441,683.424 376.075,685.586 373.94,686.6L333.84,687.37C331.666,686.374 330.267,684.191 330.27,681.8L330.27,678.8L377.44,677.87Z" style="fill-opacity:0.1;fill-rule:nonzero;"/>
                </g>
                <path id="Path_323" d="M298.59,515.57L246.34,516.57L246.34,507.9L298.59,506.9L298.59,515.57Z" style="fill:rgb(63,61,86);fill-rule:nonzero;"/>
                <path id="Path_324" d="M298.59,515.57L246.34,516.57L246.34,507.9L298.59,506.9L298.59,515.57Z" style="fill-opacity:0.1;fill-rule:nonzero;"/>
                <path id="Path_325" d="M300.59,515.57L248.34,516.57L248.34,507.9L300.59,506.9L300.59,515.57Z" style="fill:rgb(63,61,86);fill-rule:nonzero;"/>
                <g id="Path_326" transform="matrix(1,0,0,1,-79.34,-172.91)">
                    <path d="M758.56,679.87L758.56,683.06C758.559,685.424 759.925,687.586 762.06,688.6L802.16,689.37C804.334,688.374 805.733,686.191 805.73,683.8L805.73,680.8L758.56,679.87Z" style="fill-opacity:0.1;fill-rule:nonzero;"/>
                </g>
                <path id="Path_327" d="M678.72,517.57L730.97,518.57L730.97,509.9L678.72,508.9L678.72,517.57Z" style="fill-opacity:0.1;fill-rule:nonzero;"/>
                <path id="Path_328" d="M676.72,517.57L728.97,518.57L728.97,509.9L676.72,508.9L676.72,517.57Z" style="fill:rgb(63,61,86);fill-rule:nonzero;"/>
                <g id="Path_329" transform="matrix(1,0,0,1,-79.34,-172.91)">
                    <path d="M534.13,486.79C534.21,493.79 530.97,500.39 528.22,506.86C518.208,530.427 513.871,556.02 515.56,581.57C516.29,592.57 518.14,603.57 516.29,614.47C514.44,625.37 507.86,636.24 497.29,639.37C514.82,649.82 538.55,648.72 555.05,636.71C563.84,630.31 570.39,621.38 576.8,612.6C576.039,628.371 571.472,643.726 563.49,657.35C592.654,654.768 619.391,639.92 637,616.53C641.31,610.72 645.06,604.34 646.72,597.3C649.81,584.3 645.5,570.79 642.21,557.8C639.461,546.941 637.4,535.919 636.04,524.8C635.61,521.24 635.26,517.58 636.14,514.1C637.14,510.03 639.81,506.59 641.78,502.88C647.38,492.34 647.51,479.58 644.64,468C641.77,456.42 636.15,445.74 630.58,435.19C626.12,426.73 621.28,417.88 613.12,412.91C608.02,409.81 602.12,408.52 596.24,407.27L570.87,401.84C565.32,400.65 559.61,399.46 554,400.33C544.53,401.81 537.86,408.65 532,415.67C527.41,421.13 516.19,431.38 515.4,438.53C514.68,445.12 520.5,456.16 521.49,463.11C522.79,472.11 523.71,469.11 528.79,474.63C532,478.05 534.07,482 534.13,486.79Z" style="fill:rgb(63,61,86);fill-rule:nonzero;"/>
                </g>
            </g>
            <g id="docusaurus_keytar" transform="matrix(1,0,0,1,670.271,615.768)">
                <g id="Path_40" transform="matrix(1,0,0,1,-49.132,-33.936)">
                    <rect x="99" y="52" width="43.635" height="17.662" style="fill:white;"/>
                </g>
                <g id="Path_41" transform="matrix(1,0,0,1,-3,-82.47)">
                    <path d="M13.389,158.195C9.684,158.194 6.25,156.21 4.4,153C3.482,154.582 2.999,156.378 2.999,158.207C2.999,163.9 7.683,168.584 13.376,168.584C13.38,168.584 13.384,168.584 13.388,168.584L23.779,168.584L23.779,158.195L13.389,158.195Z" style="fill:rgb(62,204,95);"/>
                </g>
                <g id="Path_42" transform="matrix(1,0,0,1,-9.836,-17.226)">
                    <path d="M66.967,38.083L103.34,35.81L103.34,30.615C103.34,24.916 98.65,20.226 92.951,20.226C92.951,20.226 92.95,20.226 92.95,20.226L46.2,20.226L44.9,17.977C44.633,17.513 44.136,17.225 43.6,17.225C43.064,17.225 42.567,17.513 42.3,17.977L41,20.226L39.7,17.977C39.433,17.513 38.936,17.225 38.4,17.225C37.864,17.225 37.367,17.513 37.1,17.977L35.8,20.226L34.5,17.977C34.233,17.513 33.736,17.225 33.2,17.225C32.664,17.225 32.167,17.513 31.9,17.977L30.6,20.226L30.566,20.226L28.414,18.075C28.133,17.794 27.752,17.637 27.354,17.637C26.678,17.637 26.082,18.094 25.906,18.747L25.21,21.4L22.51,20.677C22.384,20.643 22.254,20.626 22.123,20.626C21.3,20.626 20.623,21.303 20.623,22.126C20.623,22.257 20.64,22.388 20.674,22.514L21.396,25.214L18.746,25.924C18.092,26.099 17.634,26.696 17.634,27.373C17.634,27.77 17.792,28.152 18.073,28.433L20.225,30.585L20.225,30.618L17.976,31.918C17.512,32.185 17.224,32.682 17.224,33.218C17.224,33.754 17.512,34.251 17.976,34.518L20.225,35.818L17.976,37.118C17.512,37.385 17.224,37.882 17.224,38.418C17.224,38.954 17.512,39.451 17.976,39.718L20.226,41L17.977,42.3C17.513,42.567 17.225,43.064 17.225,43.6C17.225,44.136 17.513,44.633 17.977,44.9L20.226,46.2L17.977,47.5C17.513,47.767 17.225,48.264 17.225,48.8C17.225,49.336 17.513,49.833 17.977,50.1L20.226,51.4L17.977,52.7C17.513,52.967 17.225,53.464 17.225,54C17.225,54.536 17.513,55.033 17.977,55.3L20.226,56.6L17.977,57.9C17.513,58.167 17.225,58.664 17.225,59.2C17.225,59.736 17.513,60.233 17.977,60.5L20.226,61.8L17.977,63.1C17.513,63.367 17.225,63.864 17.225,64.4C17.225,64.936 17.513,65.433 17.977,65.7L20.226,67L17.977,68.3C17.513,68.567 17.225,69.064 17.225,69.6C17.225,70.136 17.513,70.633 17.977,70.9L20.226,72.2L17.977,73.5C17.513,73.767 17.225,74.264 17.225,74.8C17.225,75.336 17.513,75.833 17.977,76.1L20.226,77.4L17.977,78.7C17.513,78.967 17.225,79.464 17.225,80C17.225,80.536 17.513,81.033 17.977,81.3L20.226,82.6L17.977,83.9C17.513,84.167 17.225,84.664 17.225,85.2C17.225,85.736 17.513,86.233 17.977,86.5L20.226,87.8L17.977,89.1C17.513,89.367 17.225,89.864 17.225,90.4C17.225,90.936 17.513,91.433 17.977,91.7L20.226,93C20.253,98.681 24.934,103.34 30.615,103.34L92.95,103.34C92.95,103.34 92.951,103.34 92.951,103.34C98.65,103.34 103.34,98.65 103.34,92.951C103.34,92.951 103.34,92.95 103.34,92.95L103.34,51.393L66.967,49.12C64.07,48.937 61.786,46.503 61.786,43.601C61.786,40.699 64.07,38.265 66.967,38.082" style="fill:rgb(62,204,95);"/>
                </g>
                <g id="Path_43" transform="matrix(1,0,0,1,-70.275,-77.665)">
                    <rect x="143" y="143" width="15.584" height="20.779" style="fill:rgb(62,204,95);"/>
                </g>
                <g id="Path_44" transform="matrix(1,0,0,1,-75.08,-75.262)">
                    <path d="M173.779,148.389C173.668,148.393 173.557,148.404 173.447,148.422C173.427,148.344 173.409,148.266 173.387,148.188C174.359,147.79 174.997,146.838 174.997,145.788C174.997,144.365 173.826,143.194 172.403,143.194C171.831,143.194 171.274,143.383 170.82,143.733C170.763,143.674 170.705,143.616 170.646,143.558C170.983,143.109 171.165,142.563 171.165,142.001C171.165,140.579 169.995,139.408 168.572,139.408C167.533,139.408 166.591,140.033 166.185,140.989C166.108,140.967 166.031,140.949 165.954,140.929C165.978,140.787 165.99,140.642 165.99,140.498C165.99,139.072 164.816,137.898 163.39,137.898C161.964,137.898 160.79,139.072 160.79,140.498C160.79,140.642 160.802,140.787 160.826,140.929C160.749,140.949 160.672,140.967 160.595,140.989C160.191,140.028 159.246,139.4 158.204,139.4C156.781,139.4 155.61,140.571 155.61,141.994C155.61,142.559 155.794,143.108 156.134,143.558C154.131,145.512 153,148.194 153,150.992C153,156.689 157.687,161.376 163.384,161.376C168.118,161.376 172.282,158.138 173.448,153.55C173.562,153.565 173.677,153.573 173.792,153.573C175.214,153.573 176.384,152.403 176.384,150.981C176.384,149.559 175.214,148.389 173.792,148.389C173.788,148.389 173.784,148.389 173.78,148.389" style="fill:rgb(68,216,96);"/>
                </g>
                <g id="Path_45" transform="matrix(1,0,0,1,-75.08,-58.444)">
                    <rect x="153" y="103" width="15.584" height="10.389" style="fill:rgb(62,204,95);"/>
                </g>
                <g id="Path_46" transform="matrix(1,0,0,1,-84.691,-57.894)">
                    <path d="M183.389,108.944C184.102,108.944 184.689,108.357 184.689,107.644C184.689,106.931 184.102,106.344 183.389,106.344C183.333,106.346 183.278,106.352 183.223,106.361C183.213,106.322 183.204,106.283 183.193,106.244C183.676,106.043 183.993,105.568 183.993,105.044C183.993,104.331 183.406,103.744 182.693,103.744C182.41,103.745 182.134,103.839 181.91,104.013C181.881,103.984 181.852,103.955 181.823,103.926C181.993,103.703 182.085,103.43 182.086,103.15C182.082,102.44 181.496,101.857 180.786,101.857C180.269,101.857 179.799,102.166 179.593,102.641C179.134,102.512 178.66,102.446 178.183,102.446C175.333,102.446 172.988,104.791 172.988,107.641C172.988,110.491 175.333,112.836 178.183,112.836C178.66,112.836 179.134,112.77 179.593,112.641C179.799,113.116 180.269,113.425 180.786,113.425C181.496,113.425 182.082,112.842 182.086,112.132C182.085,111.852 181.993,111.579 181.823,111.356C181.852,111.327 181.881,111.298 181.91,111.269C182.134,111.443 182.41,111.537 182.693,111.538C183.406,111.538 183.993,110.951 183.993,110.238C183.993,109.714 183.676,109.239 183.193,109.038C183.204,109 183.213,108.96 183.223,108.921C183.278,108.93 183.333,108.936 183.389,108.938" style="fill:rgb(68,216,96);"/>
                </g>
                <g id="Path_47" transform="matrix(1,0,0,1,-21.02,-28.41)">
                    <path d="M52.188,48.292C51.475,48.292 50.888,47.705 50.888,46.992C50.794,44.921 49.065,43.269 46.992,43.269C44.919,43.269 43.19,44.921 43.096,46.992C43.096,47.705 42.509,48.292 41.796,48.292C41.083,48.292 40.496,47.705 40.496,46.992C40.496,43.43 43.427,40.499 46.99,40.499C50.552,40.499 53.483,43.43 53.483,46.992C53.483,47.705 52.896,48.292 52.183,48.292"/>
                </g>
                <g id="Path_48" transform="matrix(1,0,0,1,-51.054,-53.638)">
                    <path d="M103,139.752L134.168,139.752C139.867,139.752 144.557,135.062 144.557,129.363L144.557,93L113.389,93C107.69,93 103,97.69 103,103.389L103,139.752Z" style="fill:rgb(255,255,80);"/>
                </g>
                <g id="Path_49" transform="matrix(1,0,0,1,-55.378,-38.552)">
                    <path d="M141.1,94.017L115.106,94.017C114.821,94.017 114.587,93.782 114.587,93.498C114.587,93.213 114.821,92.978 115.106,92.978L141.1,92.978C141.385,92.978 141.619,93.213 141.619,93.498C141.619,93.782 141.385,94.017 141.1,94.017M141.1,104.406L115.106,104.406C114.821,104.406 114.587,104.171 114.587,103.886C114.587,103.602 114.821,103.367 115.106,103.367L141.1,103.367C141.385,103.367 141.619,103.602 141.619,103.886C141.619,104.171 141.385,104.406 141.1,104.406M141.1,114.795L115.106,114.795C114.821,114.795 114.587,114.56 114.587,114.275C114.587,113.991 114.821,113.756 115.106,113.756L141.1,113.756C141.385,113.756 141.619,113.991 141.619,114.275C141.619,114.56 141.385,114.795 141.1,114.795M141.1,88.918L115.106,88.918C114.821,88.918 114.587,88.683 114.587,88.398C114.587,88.114 114.821,87.879 115.106,87.879L141.1,87.879C141.385,87.879 141.619,88.114 141.619,88.398C141.619,88.683 141.385,88.918 141.1,88.918M141.1,99.211L115.106,99.211C114.821,99.211 114.587,98.976 114.587,98.691C114.587,98.407 114.821,98.172 115.106,98.172L141.1,98.172C141.385,98.172 141.619,98.407 141.619,98.691C141.619,98.976 141.385,99.211 141.1,99.211M141.1,109.6L115.106,109.6C114.821,109.6 114.587,109.365 114.587,109.08C114.587,108.796 114.821,108.561 115.106,108.561L141.1,108.561C141.385,108.561 141.619,108.796 141.619,109.08C141.619,109.365 141.385,109.6 141.1,109.6M148.882,61.607L148.864,61.607C147.259,61.662 146.499,63.267 145.829,64.684C145.129,66.164 144.589,67.127 143.703,67.098C142.722,67.063 142.161,65.954 141.566,64.781C140.883,63.434 140.104,61.905 138.466,61.962C136.884,62.016 136.122,63.413 135.449,64.646C134.734,65.959 134.249,66.758 133.308,66.721C132.308,66.685 131.775,65.783 131.159,64.74C130.473,63.578 129.68,62.273 128.075,62.317C126.52,62.37 125.756,63.556 125.081,64.603C124.368,65.709 123.868,66.384 122.917,66.344C121.892,66.308 121.363,65.56 120.75,64.694C120.062,63.721 119.287,62.62 117.688,62.673C116.456,62.782 115.352,63.484 114.729,64.552C114.089,65.364 113.589,66.008 112.529,65.967C112.527,65.967 112.526,65.967 112.524,65.967C112.239,65.967 112.004,66.202 112.004,66.487C112.004,66.76 112.219,66.989 112.492,67.006C113.755,66.982 114.916,66.293 115.542,65.195C116.153,64.418 116.681,63.747 117.72,63.712C118.72,63.669 119.19,64.291 119.899,65.294C120.573,66.247 121.337,67.327 122.876,67.383C124.488,67.437 125.263,66.232 125.95,65.166C126.564,64.213 127.094,63.391 128.106,63.356C129.037,63.321 129.544,64.056 130.259,65.268C130.933,66.409 131.696,67.702 133.265,67.759C134.888,67.815 135.672,66.398 136.355,65.143C136.947,64.058 137.505,63.034 138.495,63C139.426,62.978 139.912,63.829 140.63,65.249C141.301,66.575 142.062,68.077 143.656,68.135L143.744,68.135C145.336,68.135 146.091,66.535 146.759,65.125C147.351,63.873 147.911,62.694 148.872,62.646L148.882,61.607Z"/>
                </g>
                <g id="Path_50" transform="matrix(1,0,0,1,-41.443,-77.665)">
                    <rect x="83" y="143" width="20.779" height="20.779" style="fill:rgb(62,204,95);"/>
                </g>
                <g id="Path_59" transform="matrix(1,0,0,1,-51.054,-75.262)">
                    <path d="M123.779,148.389C123.668,148.393 123.557,148.404 123.447,148.422C123.427,148.344 123.409,148.266 123.387,148.188C124.359,147.79 124.997,146.838 124.997,145.788C124.997,144.365 123.826,143.194 122.403,143.194C121.831,143.194 121.274,143.383 120.82,143.733C120.763,143.674 120.705,143.616 120.646,143.558C120.983,143.109 121.165,142.563 121.165,142.001C121.165,140.579 119.995,139.408 118.572,139.408C117.533,139.408 116.591,140.033 116.185,140.989C116.108,140.967 116.031,140.949 115.954,140.929C115.978,140.787 115.99,140.642 115.99,140.498C115.99,139.072 114.816,137.898 113.39,137.898C111.964,137.898 110.79,139.072 110.79,140.498C110.79,140.642 110.802,140.787 110.826,140.929C110.749,140.949 110.672,140.967 110.595,140.989C110.191,140.028 109.246,139.4 108.204,139.4C106.781,139.4 105.61,140.571 105.61,141.994C105.61,142.559 105.794,143.108 106.134,143.558C104.131,145.512 103,148.194 103,150.992C103,156.689 107.687,161.376 113.384,161.376C118.118,161.376 122.282,158.138 123.448,153.55C123.562,153.565 123.677,153.573 123.792,153.573C125.214,153.573 126.384,152.403 126.384,150.981C126.384,149.559 125.214,148.389 123.792,148.389C123.788,148.389 123.784,148.389 123.78,148.389" style="fill:rgb(68,216,96);"/>
                </g>
                <g id="Path_60" transform="matrix(1,0,0,1,-41.443,-58.444)">
                    <rect x="83" y="103" width="20.779" height="10.389" style="fill:rgb(62,204,95);"/>
                </g>
                <g id="Path_61" transform="matrix(1,0,0,1,-55.859,-57.894)">
                    <path d="M123.389,108.944C124.102,108.944 124.689,108.357 124.689,107.644C124.689,106.931 124.102,106.344 123.389,106.344C123.333,106.346 123.278,106.352 123.223,106.361C123.213,106.322 123.204,106.283 123.193,106.244C123.676,106.043 123.993,105.568 123.993,105.044C123.993,104.331 123.406,103.744 122.693,103.744C122.41,103.745 122.134,103.839 121.91,104.013C121.881,103.984 121.852,103.955 121.823,103.926C121.993,103.703 122.085,103.43 122.086,103.15C122.082,102.44 121.496,101.857 120.786,101.857C120.269,101.857 119.799,102.166 119.593,102.641C119.134,102.512 118.66,102.446 118.183,102.446C115.333,102.446 112.988,104.791 112.988,107.641C112.988,110.491 115.333,112.836 118.183,112.836C118.66,112.836 119.134,112.77 119.593,112.641C119.799,113.116 120.269,113.425 120.786,113.425C121.496,113.425 122.082,112.842 122.086,112.132C122.085,111.852 121.993,111.579 121.823,111.356C121.852,111.327 121.881,111.298 121.91,111.269C122.134,111.443 122.41,111.537 122.693,111.538C123.406,111.538 123.993,110.951 123.993,110.238C123.993,109.714 123.676,109.239 123.193,109.038C123.204,109 123.213,108.96 123.223,108.921C123.278,108.93 123.333,108.936 123.389,108.938" style="fill:rgb(68,216,96);"/>
                </g>
                <g id="Path_62" transform="matrix(1,0,0,1,-69.074,-26.006)">
                    <path d="M141.8,38.745C141.714,38.744 141.629,38.735 141.545,38.719C141.461,38.703 141.38,38.678 141.301,38.646C141.223,38.613 141.148,38.574 141.077,38.527C141.007,38.478 140.94,38.424 140.877,38.366C140.818,38.304 140.764,38.237 140.716,38.166C140.573,37.953 140.497,37.701 140.498,37.444C140.499,37.358 140.508,37.273 140.524,37.189C140.541,37.106 140.565,37.024 140.596,36.945C140.629,36.867 140.669,36.792 140.716,36.722C140.81,36.58 140.932,36.458 141.074,36.364C141.145,36.317 141.22,36.278 141.298,36.245C141.377,36.213 141.458,36.188 141.542,36.172C141.71,36.136 141.883,36.136 142.051,36.172C142.218,36.204 142.378,36.269 142.519,36.364C142.589,36.413 142.656,36.467 142.719,36.525C142.777,36.588 142.831,36.655 142.88,36.725C142.927,36.795 142.967,36.87 143,36.948C143.065,37.107 143.098,37.277 143.1,37.448C143.099,37.792 142.962,38.122 142.721,38.367C142.658,38.425 142.591,38.479 142.521,38.528C142.451,38.575 142.376,38.614 142.298,38.647C142.139,38.712 141.97,38.746 141.798,38.747M152.187,38.098C151.843,38.096 151.513,37.96 151.267,37.719C151.209,37.656 151.155,37.589 151.106,37.519C150.963,37.306 150.887,37.054 150.888,36.797C150.89,36.453 151.026,36.124 151.267,35.878C151.33,35.82 151.397,35.766 151.467,35.717C151.538,35.67 151.613,35.631 151.691,35.598C151.77,35.566 151.851,35.541 151.935,35.525C152.103,35.489 152.276,35.489 152.444,35.525C152.611,35.557 152.771,35.622 152.912,35.717C152.982,35.766 153.049,35.82 153.112,35.878C153.353,36.124 153.489,36.453 153.491,36.797C153.49,36.883 153.481,36.968 153.465,37.052C153.449,37.135 153.424,37.217 153.392,37.296C153.357,37.373 153.318,37.447 153.273,37.519C153.224,37.589 153.17,37.656 153.112,37.719C153.049,37.777 152.982,37.831 152.912,37.88C152.698,38.023 152.447,38.099 152.19,38.098"/>
                </g>
            </g>
            <g id="Obsidian_software_logo.svg" transform="matrix(3.37928,0,0,3.37928,1123.6,655.197)">
                <g transform="matrix(1,0,0,1,-9.45,-15)">
                    <clipPath id="_clip1">
                        <rect x="0" y="0" width="18.9" height="30"/>
                    </clipPath>
                    <g clip-path="url(#_clip1)">
                        <path id="polygon9" d="M0,13.635L5.871,27.141L14.205,30L15.732,26.94L18.9,7.917L13.383,0L3.873,5.256L0,13.635Z" style="fill:rgb(52,32,140);fill-rule:nonzero;"/>
                        <path id="polygon11" d="M4.929,10.71L14.205,30L15.732,26.94L18.9,7.917L13.032,4.323L4.929,10.71Z" style="fill:url(#_Linear2);fill-rule:nonzero;"/>
                        <path id="polygon13" d="M13.383,0L13.032,4.323L18.9,7.917L13.383,0Z" style="fill:rgb(175,159,244);fill-rule:nonzero;"/>
                        <path id="polygon15" d="M3.873,5.256L4.929,10.71L13.032,4.323L13.383,0L3.873,5.256Z" style="fill:rgb(74,55,160);fill-rule:nonzero;"/>
                        <path id="polygon17" d="M14.205,30L4.929,10.71L5.871,27.141L14.205,30Z" style="fill:rgb(74,55,160);fill-rule:nonzero;"/>
                    </g>
                </g>
            </g>
        </g>
    </g>
    <defs>
        <linearGradient id="_Linear2" x1="0" y1="0" x2="1" y2="0" gradientUnits="userSpaceOnUse" gradientTransform="matrix(-9.477,-22.647,22.647,-9.477,18.132,24.168)"><stop offset="0" style="stop-color:rgb(108,86,204);stop-opacity:1"/><stop offset="1" style="stop-color:rgb(151,133,229);stop-opacity:1"/></linearGradient>
    </defs>
</svg>
